<svg width="30" height="32" viewBox="0 0 30 32" fill="none" xmlns="http://www.w3.org/2000/svg">
<path d="M29.3252 22.8601H24.7552V21.3301H26.2752V19.8101H3.42524V21.3301H4.95024V22.8601H0.375244V32.0001H29.3252V22.8601ZM6.46524 21.3301H23.2252V22.8601H6.46524V21.3301ZM27.8052 30.4801H1.89524V24.3801H27.8052V30.4801Z" fill="#000001"/>
<path d="M27.8053 1.52002H26.2753V19.81H27.8053V1.52002Z" fill="#000001"/>
<path d="M24.7553 25.9H17.1353V27.43H24.7553V25.9Z" fill="#000001"/>
<path d="M18.6553 10.67H17.1353V12.19H18.6553V10.67Z" fill="#000001"/>
<path d="M18.6553 7.62H17.1353V9.14H18.6553V7.62Z" fill="#000001"/>
<path d="M17.1352 12.1899H12.5652V13.7099H17.1352V12.1899Z" fill="#000001"/>
<path d="M12.5652 10.67H11.0352V12.19H12.5652V10.67Z" fill="#000001"/>
<path d="M12.5652 7.62H11.0352V9.14H12.5652V7.62Z" fill="#000001"/>
<path d="M4.95026 18.29H24.7603V3.05005H4.95026V18.29ZM6.46526 4.57005H23.2253V16.76H6.46526V4.57005Z" fill="#000001"/>
<path d="M7.99525 25.9H4.94525V28.95H7.99525V25.9Z" fill="#000001"/>
<path d="M26.2752 0H3.42523V1.52H26.2752V0Z" fill="#000001"/>
<path d="M3.42526 1.52002H1.89526V19.81H3.42526V1.52002Z" fill="#000001"/>
</svg>
