<svg width="256" height="256" viewBox="0 0 256 256" fill="none" xmlns="http://www.w3.org/2000/svg">
<g clip-path="url(#clip0_5_2)">
<path opacity="0.88" d="M160 232C224 176.68 256 131.344 256 96C256 42.984 213.016 0 160 0C106.984 0 64 42.984 64 96C64 131.344 96 176.68 160 232Z" fill="url(#paint0_radial_5_2)"/>
<path opacity="0.55" d="M96 24C160 79.32 192 124.656 192 160C192 213.016 149.016 256 96 256C42.984 256 0 213.016 0 160C0 124.656 32 79.32 96 24Z" fill="url(#paint1_radial_5_2)"/>
</g>
<defs>
<radialGradient id="paint0_radial_5_2" cx="0" cy="0" r="1" gradientUnits="userSpaceOnUse" gradientTransform="translate(227.544 -112.399) rotate(-90) scale(191.803 280.045)">
<stop stop-color="#376DF9"/>
<stop offset="0.46208" stop-color="#6833E4"/>
<stop offset="0.77058" stop-color="#6833E4"/>
<stop offset="1" stop-color="#956BF8"/>
</radialGradient>
<radialGradient id="paint1_radial_5_2" cx="0" cy="0" r="1" gradientUnits="userSpaceOnUse" gradientTransform="translate(-20.456 212.566) rotate(-90) scale(191.803 280.045)">
<stop/>
<stop offset="0.0001" stop-color="#5188DB"/>
<stop offset="0.46208" stop-color="#2375EF"/>
<stop offset="0.77058" stop-color="#1170FF"/>
<stop offset="1" stop-color="#0C57C8"/>
</radialGradient>
<clipPath id="clip0_5_2">
<rect width="256" height="256" fill="white"/>
</clipPath>
</defs>
</svg>
